PathFileType	4	(X/Y/Z)	/home/abdul/Desktop/myosuite/custom_workspace/IK/output/S13_12_3.trc
DataRate	CameraRate	NumFrames	NumMarkers	Units	OrigDataRate	OrigDataStartFrame	OrigNumFrames
200.0	200.0	50	3	mm	200.0	572	1525
Frame#	Time	V_Shoulder			V_Elbow			V_Wrist		
		X1	Y1	Z1	X2	Y2	Z2	X3	Y3	Z3

572	2.855	-80.04211163885122	610.0884231422777	340.0991199771109	-215.47998592838178	474.37436121930136	43.11811253812846	-88.60315327406602	322.40855876724083	216.70319348588828
573	2.86	-80.05566343456753	610.3676598791527	340.17558951337224	-215.46724469849772	474.12089045179414	43.53074804690074	-88.38271926713321	323.8249734240443	218.4080759137796
574	2.865	-80.06809169771998	610.6454601229806	340.2519455312572	-215.44772094261202	473.86514310354227	43.942061506970404	-88.16307835383378	325.2315394006062	220.0866592329404
575	2.87	-80.0794176806084	610.9217465059994	340.328147186538	-215.42153626741936	473.6074802813687	44.351782014361575	-87.9443701025329	326.62784636633575	221.73851783103328
576	2.875	-80.08966355281747	611.1964429117702	340.40415398006877	-215.3888168684357	473.3482588255829	44.75964180575139	-87.72673199719294	328.0134987200481	223.36326045524464
577	2.88	-80.09885236465907	611.4694745355578	340.4799258089568	-215.34969324195362	473.0878305153788	45.16537674059817	-87.51029926645998	329.388115873211	224.9605304372525
578	2.885	-80.10700800942726	611.7407679428505	340.5554230169607	-215.30429989833482	472.82654129661853	45.56872677875157	-87.29520472067061	330.7513324983048	226.53000584898888
579	2.89	-80.11415518454304	612.0102511259348	340.6306064440151	-215.25277507748092	472.564730534397	45.96943645215235	-87.08157859659971	332.1027987427719	228.07139958923693
580	2.895	-80.12031935166813	612.277853558443	340.7054374747851	-215.19526046728691	472.3027302926905	46.367255329221194	-86.86954840974192	333.4421804091446	229.5844594013121
581	2.9	-80.12552669587092	612.5435062477994	340.77987808614955	-215.13190092584603	472.0408646432886	46.7619384705334	-86.65923881389483	334.76915910204724	231.06896782228637
582	2.905	-80.12980408392927	612.8071417854936	340.8538908935204	-215.06284420813307	471.7794490061017	47.15324687437839	-86.45077146779421	336.08343234286576	232.52474206441624
583	2.91	-80.13317902185823	613.0686943951105	340.9274391959013	-214.98824069785087	471.5187895228188	47.540947910810345	-86.24426490853739	337.3847136529628	233.95163382963602
584	2.915	-80.13567961175174	613.3280999780567	341.0004870195942	-214.9082431450795	471.259182465767	47.92481574280895	-86.03983443152384	338.6727326063922	235.34952905816965
585	2.92	-80.137334508031	613.5852961569235	341.0729991604639	-214.82300641032074	471.00091368369556	48.304631733187186	-85.83759197663831	339.9472348531326	236.718347612503
586	2.925	-80.13817287319189	613.8402223164344	341.144941224672	-214.73268721548175	470.7442580860728	48.68018483590641	-85.63764602040385	341.2079821139092	238.05804289813585
587	2.93	-80.13822433314728	614.0928196419271	341.21627966779624	-214.63744390229112	470.48947916734386	49.05127197048762	-85.44010147384014	342.4547521477184	239.36860142270592
588	2.935	-80.13751893225938	614.3430311553282	341.28698183225265	-214.53743619859057	470.23682857245194	49.41769837824132	-85.24505958577262	343.68733869319817	240.65004229523802
589	2.94	-80.13608708816001	614.59080174858	341.3570159829407	-214.43282499289256	469.9865457047812	49.77927795907784	-85.05261785135497	344.90555138500383	241.90241666742457
590	2.945	-80.13395954645576	614.8360782144881	341.4263513410376	-214.3237721175429	469.73885737752335	50.135833587703985	-84.86286992558689	346.1092156463592	243.12580711898562
591	2.95	-80.13116733541655	615.0788092749598	341.4949581158674	-214.21044014077347	469.49397750932025	50.487197408061206	-84.67590554163294	347.298172558945	244.32032698928742
592	2.955	-80.12774172074582	615.318945606612	341.5628075347779	-214.09299216788037	469.2521068648757	50.8332111049147	-84.49181043377466	348.4722787112737	245.48611965751974
593	2.96	-80.12371416052996	615.5564398637302	341.62987187096	-213.9715916517075	469.0134328410743	51.17372615156201	-84.3106662648583	349.63140602667374	246.62335777383754
594	2.965	-80.11911626046479	615.791246698565	341.6961244691508	-213.8464022125682	468.778129298985	51.50860403269306	-84.13255055813144	350.7754415719681	247.73224244397136
595	2.97	-80.11397972945564	616.0233227789608	341.7615397691614	-213.71758746768404	468.54635644197106	51.83771644150212	-83.95753663339646	351.90428734788816	248.81300236989108
596	2.975	-80.10833633568654	616.2526268033129	341.82609332718215	-213.58531087017292	468.31826073996535	52.16094545022416	-83.78569354744297	353.01786006220703	249.86589294917945
597	2.98	-80.10221786325322	616.4791195128556	341.8897618348153	-213.44973555757053	468.0939748998159	52.47818365334494	-83.61708603875731	354.1160908865149	250.8911953358301
598	2.985	-80.09565606945182	616.7027637012917	341.9525231357952	-213.31102420982333	467.8736178814489	52.789334282814174	-83.45177447654291	355.1989251974853	251.88921546522624
599	2.99	-80.08868264281466	616.9235242217715	342.01435624035884	-213.169338916647	467.65729495944123	53.09431129467517	-83.2898148141214	356.2663223034057	252.86028304609016
600	2.995	-80.08132916198097	617.1413679912436	342.0752413372345	-213.0248410541035	467.4450978294451	53.39303942661152	-83.13125854681806	357.31825515665724	253.80475052221044
601	3.0	-80.07362705548842	617.3562639921962	342.13515980322444	-212.87769117020883	467.23710475875725	53.685454226001454	-82.97615267447006	358.3547100527444	254.7229920067592
602	3.005	-80.06560756256884	617.5681832718185	342.1940942103582	-212.72804887934768	467.0333807801776	53.971502048163565	-82.82453966872563	359.3756863163743	255.6154021920055
603	3.01	-80.05730169502766	617.7770989386107	342.2520283306033	-212.5760727652359	466.833977928164	54.25114002457278	-82.67645744533326	360.3811959749957	256.4823952372104
604	3.015	-80.04874020028372	617.9829861564815	342.3089471381236	-212.42192029214038	466.6389355161516	54.52433600092296	-82.53193934164494	361.37126342010146	257.32440363745866
605	3.02	-80.03995352564255	618.1858221363694	342.3648368090813	-212.26574772403558	466.4482804537709	54.791068445011454	-82.3910140995821	362.3459250565021	258.1418770761379
606	3.025	-80.03097178387218	618.3855861254347	342.4196847189855	-212.10771005135135	466.26202760257445	55.05132632452171	-82.2537058543309	363.3052289396744	258.93528126372473
607	3.03	-80.02182472014648	618.5822593938661	342.47347943759445	-211.94796092494158	466.0801801687586	55.30510895488132	-82.12003412905153	364.2492344011904	259.70509676546993
608	3.035	-80.01254168041682	618.775825219357	342.5262107213877	-211.78665259688321	465.9027301312518	55.55242581747525	-81.99001383589606	365.1780116621342	260.4518178205044
609	3.04	-80.00315158126813	618.9662688693019	342.5778695036253	-211.62393586769747	465.7296587034306	55.79329634859622	-81.86365528363774	366.0916414343193	261.17595115480265
610	3.045	-79.99368288131119	619.1535775807733	342.6284478820235	-211.45996003956992	465.5609368266233	56.027749699616585	-81.74096419221745	366.99021450902944	261.8780147903502
611	3.05	-79.98416355415746	619.3377405383382	342.677939104077	-211.29487287513456	465.3965256934642	56.255824468967894	-81.62194171451145	367.87383133292144	262.5585368527659
612	3.055	-79.97462106301843	619.5187488497778	342.72633755006626	-211.12882056137738	465.23637729907193	56.477568406615035	-81.50658446561822	368.7426015706499	263.2180543795213
613	3.06	-79.96508233696535	619.6965955197767	342.7736387137949	-210.9619476782089	465.0804350179451	56.693038091811495	-81.39488455995146	369.59664365370577	263.8571121307949
614	3.065	-79.95557374888145	619.8712754216482	342.81983918110603	-210.79439717125138	464.92863420439426	56.90229858501992	-81.28682965641107	370.43608431489645	264.47626140488137
615	3.07	-79.94612109513113	620.0427852671677	342.8649366062344	-210.62631032838487	464.78090281426057	57.10542305497807	-81.18240301188403	371.26105810784827	265.07605885995963
616	3.075	-79.93674957696756	620.2111235745853	342.9089296860552	-210.45782675959876	464.63716204561547	57.30249238198317	-81.08158354330402	372.0717069108657	265.6570653439053
617	3.08	-79.92748378369248	620.3762906348912	342.9518181322983	-210.2890843796975	464.49732699608285	57.49359473855805	-80.9843458984698	372.86817941445975	266.21984473370935
618	3.085	-79.91834767757777	620.5382884764086	342.9936026417983	-210.1202193934173	464.36130733438466	57.67882514874931	-80.89066053579239	373.6506305918351	266.7649627859463
619	3.09	-79.90936458055184	620.6971208277915	343.0342848648622	-209.95136628251615	464.22900798367266	57.85828502739105	-80.8004938131057	374.4192211516279	267.2929859996123
620	3.095	-79.9005571626489	620.8527930795018	343.07386737183475	-209.78265779441176	464.1003298141854	58.032081700746964	-80.71380808563856	375.1741169721922	267.8044804925365
621	3.1	-79.89194743221326	621.0053122438462	343.1123536179527	-209.61422493195275	463.9751703427478	58.200327910018245	-80.63056181320613	375.9154885167646	268.3000108924522
